<svg version="1.2" xmlns="http://www.w3.org/2000/svg" viewBox="0 0 462 729" width="462" height="729">
	<style>
		.s0 { fill: #000000 } 
	</style>
	<path fill-rule="evenodd" class="s0" d="m230.55 0.25c3.55 0 25.75 24.41 25.75 28.28 0 0.95 0.64 1.74 1.35 1.74 3.47 0 30.89 51.12 32.79 61.16 0.55 2.92 1.58 5.61 2.29 6 0.63 0.48 1.74 3.64 2.29 7.12 0.55 3.47 1.66 6.63 2.37 7.11 0.71 0.39 1.82 4.5 2.37 9.08 0.63 4.59 1.82 9.09 2.61 10.12 0.79 0.95 1.42 3.79 1.42 6.32 0 9.01 2.29 28.76 3.56 30.02 0.71 0.64 3.16-0.71 5.53-3.08 5.45-5.53 18.09-15.33 19.75-15.33 0.71 0 3.56-1.74 6.32-3.79 2.77-2.13 7.19-4.35 9.8-4.98 2.61-0.63 6.16-2.13 7.82-3.32 1.74-1.18 8.11-2.43 6.4-2.13-1.64 0.29 3.34-0.57 4.82-1.42 7.18-4.11 72.77-6.01 76.57-0.32 0.39 0.71 3.55 1.66 6.87 2.21 11.85 1.9 13.75 7.67 4.82 14.78-8.61 6.8-48.04 45.2-48.04 46.86 0 0.79-3.16 5.05-7.11 9.48-3.87 4.5-7.11 8.85-7.11 9.64 0 0.79-1.74 3.79-3.95 6.63-2.14 2.85-4.67 6.8-5.53 8.85-0.87 1.98-2.3 4.67-3.09 6.01-0.87 1.26-3 5.92-4.82 10.27-1.81 4.35-3.95 9.32-4.82 11.06-0.79 1.74-2.92 7.75-4.74 13.43-1.81 5.61-4.34 12.49-5.61 15.25-1.18 2.77-1.62 8.8-2.21 7.51-0.3-0.65-0.68 2.22-1.42 2.53-0.8 0.33-1.98 2.13-2.53 4.74-0.55 2.61-2.05 4.01-2.53 4.74-0.52 0.8-1.08 0.15-1.08 0.94 0 10.27-39.61 53.66-59.21 64.8-8.61 4.9-16.11 8.53-17.69 8.53-0.87 0-3.72 1.11-6.25 2.37-2.45 1.35-7.42 2.85-11.06 3.4-3.55 0.55-7.24 1.7-8.29 2.45-1.06 0.74-4.66 0.28-6.83 0.6l-4-0.13-0.39 64.56c-0.7 69.2-4.3 75.78 6.71 57.2 7.66-12.92 35.55-39.54 39.75-42.03 1.71-1.02 4.2-2.66 6.79-4.74 3.06-2.46 6.5-4.08 7.35-4.66 3.86-2.64 2.66-1.01 3.55-2.06 3.52-4.15 19.52-11.14 26.08-11.22l6.56-0.16-0.32 6.96c-0.16 3.87-1.03 7.42-1.9 7.9-0.79 0.55-1.97 2.92-2.6 5.29-0.56 2.37-1.66 4.35-2.45 4.35-0.79 0-1.42 0.87-1.42 1.97 0 1.11-2.45 5.85-5.54 10.43-3.08 4.67-5.53 8.62-5.53 8.93 0 2.61-33.26 37.14-35.79 37.14-1.11 0-2.53 0.87-3.24 1.97-1.66 2.53-10.9 9.09-12.96 9.09-0.79 0-1.74 0.55-1.97 1.19-0.63 1.34-8.38 5.21-17.54 8.92l-6.01 2.37 0.16 85.58c0.08 88.65 0 89.99-6.32 89.99-8.22 0-8.14 0.79-7.9-91.02l0.31-85.02-5.37-1.9c-6.64-2.37-20.31-9.71-23.62-12.64-1.35-1.18-3.31-2.09-4.21-2.58-3.45-1.89-41.22-39.31-42.81-42.57-0.39-0.81-2.54-4.53-4.58-7.39-4.19-5.88-12.96-22.21-16.2-30.82-4.27-11.61 12.41-10.9 30.82 1.35 2.6 1.73 5.92 3.87 7.42 4.74 9.8 5.76 18.81 12.88 31.06 24.57 4.97 4.74 15.25 16.43 16.83 19.04 7.66 13.04 9.4 15.65 10.19 15.65 0.47 0 0.79-29.32 0.55-65.19l-0.23-65.19-3.43 0.38c-1.09-0.4-4.75-0.85-7-1.09-1.14-0.11-2.61-1.66-4.51-1.66-3.63 0.08-24.97-6.4-26.39-7.9-0.39-0.47-2.53-1.74-4.74-2.84-2.13-1.03-6.08-3.32-8.69-5.06-2.61-1.74-5.61-3.55-6.72-4.11-9.72-4.82-44.81-48.68-45.44-48.68-0.63 0-2.36-2.52-3.31-4.49-0.95-1.98-3.55-7.11-5.77-11.46-2.21-4.35-5.29-11.14-6.79-15.01-1.5-3.95-3.64-9.25-4.74-11.86-1.03-2.6-2.02-7.15-3.01-9.87-1.95-5.42-1.12-2.37-2.6-6.01-0.35-0.85-1.42-2.13-1.42-3.55 0-2.45-6.17-15.41-14.39-30.34-4.97-9.09-6.63-11.46-13.66-19.99-3.72-4.51-6.72-8.77-6.72-9.49 0-1.81-39.9-41.64-41.8-41.64-2.61 0-11.93-9.95-11.93-12.72 0-3.63 3.16-6 9.64-7.27 2.92-0.55 6.12-1.53 7.03-2.29 0.87-0.72 6.31-1.04 12.64-2.29 7-1.38 6.9-1.53 13.36-1.82 6.79-0.29 48.04 1.27 51.28 4.43 0.79 0.79 3 1.42 4.82 1.42 1.74 0 4.66 0.95 6.4 2.13 1.66 1.27 5.37 2.69 8.21 3.32 2.85 0.63 5.14 1.66 5.14 2.37 0 0.71 1.26 1.74 2.77 2.29 6.71 2.45 20.86 12.25 26.86 18.73 6.48 6.95 8.3 5.77 8.38-5.53 0.07-5.45 0.79-13.43 1.5-17.78 3.16-19.39 4.92-22.68 6.9-29.06 0.34-1.07 0.52-3.7 1.79-6.49 1.28-2.83 1.86-4.1 2.37-7.12 0.18-1.06 1.66-3.71 2.21-6.32 1.58-6.95 19.68-43.3 24.89-50.01 2.53-3.16 4.2-6.32 4.5-6.88 0.88-1.58 14.34-19.59 21.18-27.26 3.39-3.79 7.27-6.71 8.38-6.71zm-11.78 31.21c-1.1 1.5-4.5 6.08-7.5 10.19-3.09 4.03-5.53 7.9-5.53 8.46 0 0.55-1.59 3.23-3.56 5.92-4.27 6.01-15.33 28.05-15.33 30.58-0.08 1.03-1.26 4.27-2.69 7.11-5.05 10.11-5.37 10.98-4.5 12.33 0.47 0.79 0.16 1.81-0.63 2.37-0.79 0.47-1.98 4.58-2.61 9.08-0.55 4.59-1.74 9.33-2.45 10.67-1.89 3.48-4.74 23.86-5.61 39.98l-0.79 13.91 8.06 10.03c4.35 5.53 7.98 10.67 7.98 11.3 0 0.71 1.03 2.37 2.21 3.72 5.3 6.08 30.98 57.04 30.98 61.55 0 3.47 5.05 17.62 6.32 17.62 0.79 0 1.03-28.69 0.47-69.93-1.03-76.41-1.03-77.04 7.43-77.04 6.72 0 6.48-2.68 6.32 74.2 0 39.19 0.47 71.19 1.19 71.19 1.5 0 4.34-6.56 6.55-15.02 0.95-3.47 3.32-9.87 5.46-14.22 2.05-4.34 4.34-9.72 4.97-11.85 0.64-2.21 1.66-4.35 2.22-4.74 0.47-0.48 2.92-4.74 5.29-9.48 2.45-4.82 6.16-11.54 8.3-15.02 2.05-3.47 4.26-7.42 4.9-8.69 0.63-1.34 3.71-5.61 6.87-9.48 3.24-3.95 6.32-8.37 6.87-9.88 0.56-1.5 1.74-2.76 2.61-2.76 2.06 0 2.29-29.47 0.32-30.66-0.79-0.47-1.9-6.56-2.53-13.51-0.55-6.95-1.66-13.04-2.37-13.43-0.71-0.48-1.82-4.19-2.45-8.38-0.55-4.11-1.66-8.21-2.29-9.08-0.71-0.87-1.74-3.72-2.29-6.32-1.11-5.06-1.43-5.69-12.96-30.03-8.14-16.99-22.36-39.27-32.08-50.17-5.85-6.56-5.53-6.72-17.15 9.48zm-184.57 111.17c-0.61 0.11-1.8 0.01-5.12 0.7-5.48 1.15-9.9 2.78-5.87 5.07 3.88 2.13 28.92 27.02 38.09 37.69 15.64 18.41 20.7 26.15 31.21 47.48 8.93 18.26 10.27 21.42 11.46 26.63 0.55 2.61 1.58 5.45 2.21 6.32 0.63 0.87 1.66 3.72 2.21 6.32 7.66 32.79 53.02 86.52 80.2 94.9 2.05 0.55 4.42 1.66 5.29 2.37 0.87 0.63 4.27 1.74 7.51 2.29 3.32 0.63 6.32 1.82 6.79 2.53 0.48 0.79 2.85 1.42 5.22 1.42 2.37 0 5.21 0.87 6.24 1.9 1.24-0.05 0.22 0.14 1.94 0.02 1.33-1.54 3.14-5.59 2.64-13.22-1.26-19.43-4.42-44.64-5.76-46.38-0.71-0.87-1.74-5.69-2.37-10.66-0.64-4.98-1.66-9.41-2.37-9.8-0.72-0.48-1.74-4.03-2.37-7.98-0.56-3.87-1.74-7.11-2.53-7.11-0.87 0-1.5-1.11-1.5-2.53 0-10.04-35.86-78.55-43.07-80.99-1-0.34-1.19-0.48-1.43-1.48-2.13-9.07-51.9-49.25-63.28-49.33-1.42 0-3.08-0.63-3.55-1.5-0.56-0.79-4.27-1.89-8.38-2.45-4.11-0.55-8.77-1.66-10.27-2.45-3.95-2.13-40.59-0.21-43.14 0.24zm350.11-0.39c0 0.79-3.72 1.81-8.14 2.37-4.51 0.47-9.48 2.46-10.67 2.74-1.85 0.42-1.9 1.44-3.24 1.44-3.08 0-22.04 9.72-30.66 15.65-8.29 5.77-40.53 39.11-40.53 41.95 0 0.4-2.13 3.95-4.82 7.83-5.77 8.61-26.79 49.54-26.79 52.22 0 1.82-3 9.09-6.32 15.33-0.71 1.35-1.89 5.3-2.45 8.69-0.63 3.32-1.66 6.8-2.37 7.67-0.71 0.95-1.81 5.53-2.45 10.27-0.55 4.82-1.66 9.09-2.29 9.48-1.34 0.87-5.51 25.72-5.69 46.38-0.09 10.32-0.4 9.3 2.27 14.64 4.01-0.25 1.33 0.26 2.24-0.65 1.02-1.03 3.87-1.9 6.24-1.9 2.37 0 4.74-0.63 5.21-1.42 0.48-0.71 3.24-1.82 6.17-2.37 6.87-1.26 29.23-12.56 36.5-18.33 5.45-4.35 25.29-24.5 28.92-29.24 9.72-13.03 12.09-16.75 17.86-28.84 3.4-7.11 6.24-13.51 6.24-14.22 0-0.63 1.03-3.08 2.21-5.45 1.27-2.29 2.77-6.56 3.4-9.4 1.18-5.46 1.66-6.72 6-15.33 1.43-2.85 2.61-6.09 2.61-7.11 0.08-2.22 8.77-19.68 11.62-23.08 1.1-1.34 2.84-4.26 3.95-6.4 3.71-7.5 5.92-10.82 14.54-21.49 9.32-11.53 38-40.61 43.77-44.48 4.82-3.16 1.89-5.25-4.37-6.42-2.4-0.45-3.76-0.49-5.07-0.63-2.4-0.26-43.89-1.96-43.89 0.1zm-222.82 348.44c3.4 4.82 26.78 28.29 30.89 31.06 19.91 13.51 22.44 14.55 23.7 13.29 0.87-0.87 1.03-2.55-1.5-5.79-2.21-3-4.1-5.92-4.1-6.48 0-1.02-1.74-3.24-11.38-14.69-3.24-3.8-6.4-7.82-7.11-8.93-1.11-1.82-24.1-21.81-28.21-24.5-0.95-0.63-3.08-1.97-4.74-3.08-17.38-10.98-16.99-8.06 2.45 19.12zm142.62-20.3c-1.11 0.87-6.32 4.74-11.62 8.69-14.62 10.75-29.94 24.45-41 43.87-0.28 0.48-0.8 1.03-1.9 2.83-4.17 6.76-5.16 7.07-4.37 9.2 2.37 6.01 45.53-30.3 57.78-48.32 2.61-3.71 5.22-7.03 5.85-7.34 0.63-0.24 1.98-2.82 2.31-3.71 0.63-1.75 0.32-1.51 1.4-3.01 5.19-7.16-0.95-8.38-8.45-2.21z"/>
</svg>