<?xml version="1.0" encoding="UTF-8"?>
<svg id="Camada_1" xmlns="http://www.w3.org/2000/svg" version="1.1" viewBox="0 0 2500 2500">
  <!-- Generator: Adobe Illustrator 29.8.5, SVG Export Plug-In . SVG Version: 2.1.1 Build 2)  -->
  <defs>
    <style>
      .st0 {
        fill: #353535;
      }
    </style>
  </defs>
  <g>
    <path class="st0" d="M422.75,1137.18c-25.8,3.47-32.34,6.93-46.2,41.58-10.4,25.41-63.53,154.4-82.4,202.14h-12.71c-22.72-61.99-55.83-152.09-77.78-209.08-10.78-28.49-17.33-32.34-40.81-34.65v-10.78h97.8v10.78c-28.49,3.08-30.03,7.7-24.64,21.95,9.63,28.11,37.73,104.73,61.99,168.65,20.41-49.67,45.82-112.43,63.92-160.95,8.47-22.33,3.85-25.8-27.72-29.65v-10.78h88.56v10.78Z"/>
    <path class="st0" d="M637.6,1315.46c-2.31,10.01-12.71,49.67-16.56,61.22h-187.13v-10.78c35.81-2.69,38.5-6.16,38.5-37.73v-152.09c0-34.27-4.24-36.19-33.11-38.89v-10.78h117.82c36.19,0,51.21-.39,55.83-.77.39,9.63,1.93,38.5,3.47,58.91l-11.55,1.93c-3.47-13.09-7.32-21.18-11.55-29.26-6.16-12.71-15.02-15.4-38.12-15.4h-36.58c-11.94,0-12.71,1.16-12.71,12.32v85.09h42.74c28.88,0,30.8-5.78,35.42-31.96h11.94v79.32h-11.94c-5.01-27.72-8.09-31.57-35.81-31.57h-42.35v76.62c0,26.95,8.47,29.26,27.72,29.65h35.81c23.49,0,27.34-3.47,35.81-13.48,7.32-8.09,15.4-23.87,20.79-35.42l11.55,3.08Z"/>
    <path class="st0" d="M892.88,1379.76c-5.01,0-9.24-.39-14.25-.77-28.11-1.93-43.12-9.24-60.07-33.11-14.25-19.64-28.11-43.89-40.43-63.53-7.7-12.32-12.71-14.63-32.34-14.63h-13.48v60.45c0,32.73,4.24,34.65,35.04,37.73v10.78h-102.8v-10.78c31.96-3.47,34.65-5.01,34.65-37.73v-153.63c0-32.73-4.24-33.88-34.65-37.35v-10.78h98.18c28.11,0,46.97,3.47,61.61,13.09,15.79,10.01,26.18,27.34,26.18,50.82,0,33.11-21.18,53.9-49.67,66.23,6.93,11.94,23.49,37.73,35.04,55.06,14.25,20.41,21.56,30.03,30.42,39.66,10.4,11.17,19.25,15.4,28.11,17.71l-1.54,10.78ZM750.8,1254.62c20.02,0,32.73-3.08,42.35-11.17,15.02-11.17,21.18-26.57,21.18-47.36,0-41.2-27.34-56.22-56.99-56.22-11.17,0-17.71,1.54-20.41,3.85-3.47,2.7-4.62,6.55-4.62,16.56v94.33h18.48Z"/>
    <path class="st0" d="M907.89,1376.68v-10.78c31.57-3.47,34.65-5.01,34.65-37.73v-152.86c0-33.11-3.08-34.65-34.65-38.12v-10.78h103.19v10.78c-31.96,3.47-35.04,5.01-35.04,38.12v152.86c0,33.11,3.08,34.27,35.04,37.73v10.78h-103.19Z"/>
    <path class="st0" d="M1250.95,1186.85c-3.47-12.32-8.09-25.03-12.32-31.96-6.16-10.4-10.01-13.09-31.19-13.09h-38.5v187.51c0,30.03,3.08,34.27,39.66,36.58v10.78h-112.04v-10.78c35.81-2.31,38.89-6.16,38.89-36.58v-187.51h-35.04c-21.18,0-27.34,2.31-33.88,13.86-4.62,7.7-7.7,16.94-12.71,31.19h-11.55c2.31-23.49,4.62-47.74,5.78-69.31h8.86c5.78,9.24,10.01,8.86,20.79,8.86h152.47c10.78,0,13.86-1.54,19.64-8.86h9.24c0,18.1,1.54,45.82,3.47,68.15l-11.55,1.15Z"/>
    <path class="st0" d="M1402.66,1376.68v-10.78c25.03-3.08,28.11-6.93,22.72-21.56-5.01-15.02-12.71-34.27-20.79-58.52h-83.17c-6.16,17.33-11.94,32.34-17.33,48.13-8.47,25.03-3.08,28.11,28.49,31.96v10.78h-88.94v-10.78c24.26-3.08,30.42-5.78,43.89-40.43l79.7-202.14,12.32-2.31c24.26,65.84,50.82,138.61,75.08,205.22,12.32,33.5,15.79,36.58,43.12,39.66v10.78h-95.1ZM1364.16,1171.45c-12.32,33.11-25.41,68.15-36.96,98.57h72l-35.04-98.57Z"/>
    <path class="st0" d="M1652.93,1184.93c-6.55-25.41-17.33-50.44-53.52-50.44-30.03,0-40.43,21.95-40.43,41.97,0,26.57,16.94,40.04,48.9,56.6,46.2,23.87,66.23,41.58,66.23,78.16,0,40.43-35.04,71.23-84.71,71.23-23.1,0-43.12-6.55-58.91-12.71-3.08-10.78-7.7-36.96-10.4-57.76l11.94-3.08c7.7,25.8,24.64,59.3,64.69,59.3,27.72,0,44.66-19.25,44.66-44.28,0-29.65-15.79-41.58-49.67-60.07-40.43-21.95-63.15-40.43-63.15-76.24s28.49-66.61,79.32-66.61c21.56,0,42.74,5.78,50.82,7.32,1.54,13.86,3.08,29.26,6.16,54.29l-11.94,2.31Z"/>
  </g>
  <g>
    <path class="st0" d="M1893.41,1314.38h-18.52l-10.11-24.07h-47.14l-10.26,24.07h-17.95l43.87-100.41h16.24l43.87,100.41ZM1841.14,1234.9l-17.09,39.88h34.32l-17.23-39.88Z"/>
    <path class="st0" d="M1939.84,1314.38h-17.66v-83.46h-31.62v-16.24h80.9v16.24h-31.62v83.46Z"/>
    <path class="st0" d="M2063.75,1230.49h-56.4v25.64h49.99v15.81h-49.99v26.63h57.11v15.81h-74.49v-99.7h73.78v15.81Z"/>
    <path class="st0" d="M2085.4,1214.68h17.38v83.89h52.41v15.81h-69.79v-99.7Z"/>
    <path class="st0" d="M2191.93,1214.68v99.7h-17.38v-99.7h17.38Z"/>
    <path class="st0" d="M2292.48,1230.49h-56.4v25.64h49.99v15.81h-49.99v26.63h57.11v15.81h-74.49v-99.7h73.78v15.81ZM2244.2,1206.42h-13.39l16.52-20.79h15.95l16.52,20.79h-13.67l-10.97-9.54-10.97,9.54Z"/>
  </g>
</svg>