<svg version="1.2" xmlns="http://www.w3.org/2000/svg" viewBox="0 0 2048 400" width="2048" height="400">
	<style>
		.s0 { fill: #f4f1ea } 
	</style>
	<g>
		<path class="s0" d="m255.83 92.73c-24.6 3.31-30.84 6.61-44.05 39.65-9.92 24.23-60.58 147.23-78.58 192.75h-12.12c-21.66-59.11-53.23-145.03-74.16-199.37-10.28-27.17-16.53-30.84-38.92-33.04v-10.28h93.26v10.28c-27.17 2.94-28.64 7.34-23.5 20.93 9.19 26.8 35.98 99.87 59.11 160.82 19.47-47.36 43.7-107.21 60.96-153.48 8.07-21.29 3.67-24.6-26.44-28.27v-10.28h84.45v10.28z"/>
		<path class="s0" d="m460.71 262.73c-2.21 9.55-12.12 47.36-15.79 58.38h-178.45v-10.28c34.15-2.57 36.72-5.88 36.72-35.98v-145.03c0-32.68-4.05-34.51-31.58-37.08v-10.28h112.35c34.51 0 48.84-0.37 53.24-0.74 0.37 9.19 1.84 36.72 3.31 56.18l-11.01 1.84c-3.31-12.48-6.98-20.2-11.02-27.9-5.87-12.12-14.32-14.69-36.35-14.69h-34.88c-11.38 0-12.12 1.11-12.12 11.75v81.14h40.76c27.54 0 29.37-5.51 33.77-30.48h11.39v75.64h-11.39c-4.77-26.43-7.71-30.1-34.14-30.1h-40.39v73.06c0 25.7 8.08 27.9 26.43 28.27h34.15c22.4 0 26.07-3.31 34.15-12.85 6.98-7.72 14.68-22.76 19.82-33.78l11.02 2.94z"/>
		<path class="s0" d="m704.13 324.05c-4.77 0-8.81-0.38-13.58-0.74-26.81-1.84-41.12-8.81-57.28-31.57-13.59-18.73-26.81-41.85-38.56-60.58-7.34-11.75-12.12-13.95-30.84-13.95h-12.85v57.64c0 31.21 4.04 33.04 33.41 35.98v10.28h-98.02v-10.28c30.47-3.31 33.04-4.78 33.04-35.98v-146.5c0-31.21-4.05-32.3-33.04-35.61v-10.28h93.62c26.8 0 44.79 3.31 58.75 12.48 15.05 9.55 24.96 26.07 24.96 48.46 0 31.57-20.2 51.4-47.36 63.16 6.61 11.38 22.4 35.97 33.41 52.5 13.59 19.46 20.56 28.63 29.01 37.82 9.92 10.65 18.35 14.68 26.8 16.89zm-135.48-119.33c19.09 0 31.21-2.94 40.38-10.66 14.33-10.65 20.2-25.33 20.2-45.16 0-39.28-26.07-53.61-54.34-53.61-10.66 0-16.89 1.47-19.47 3.67-3.31 2.58-4.4 6.25-4.4 15.8v89.95h17.62z"/>
		<path class="s0" d="m718.45 321.11v-10.28c30.1-3.31 33.04-4.78 33.04-35.98v-145.76c0-31.57-2.94-33.04-33.04-36.35v-10.28h98.4v10.28c-30.48 3.31-33.42 4.78-33.42 36.35v145.76c0 31.57 2.94 32.68 33.42 35.98v10.28z"/>
		<path class="s0" d="m1045.58 140.09c-3.31-11.75-7.72-23.87-11.75-30.47-5.87-9.92-9.54-12.49-29.74-12.49h-36.71v178.81c0 28.63 2.93 32.68 37.82 34.88v10.28h-106.84v-10.28c34.14-2.2 37.08-5.87 37.08-34.88v-178.81h-33.41c-20.2 0-26.07 2.21-32.31 13.22-4.4 7.34-7.34 16.15-12.12 29.74h-11.01c2.2-22.4 4.4-45.52 5.51-66.09h8.45c5.51 8.81 9.54 8.45 19.82 8.45h145.39c10.28 0 13.22-1.47 18.73-8.45h8.81c0 17.26 1.47 43.69 3.31 64.99l-11.01 1.09z"/>
		<path class="s0" d="m1190.25 321.11v-10.28c23.86-2.94 26.8-6.61 21.66-20.56-4.78-14.32-12.12-32.68-19.82-55.8h-79.31c-5.88 16.52-11.39 30.84-16.53 45.89-8.07 23.87-2.94 26.81 27.17 30.48v10.28h-84.81v-10.28c23.13-2.94 29.01-5.51 41.85-38.55l76-192.76 11.75-2.2c23.13 62.78 48.46 132.17 71.59 195.69 11.75 31.94 15.06 34.88 41.12 37.82v10.28h-90.68zm-36.72-195.7c-11.74 31.57-24.23 64.98-35.24 93.99h68.66z"/>
		<path class="s0" d="m1428.9 138.26c-6.25-24.23-16.53-48.1-51.04-48.1-28.64 0-38.55 20.93-38.55 40.02 0 25.34 16.15 38.19 46.63 53.98 44.05 22.76 63.15 39.65 63.15 74.53 0 38.55-33.41 67.92-80.78 67.92-22.02 0-41.11-6.25-56.17-12.12-2.94-10.28-7.34-35.24-9.92-55.08l11.39-2.93c7.34 24.6 23.49 56.54 61.68 56.54 26.44 0 42.59-18.35 42.59-42.22 0-28.28-15.06-39.65-47.36-57.28-38.56-20.93-60.22-38.56-60.22-72.7 0-34.15 27.17-63.52 75.64-63.52 20.56 0 40.75 5.51 48.46 6.98 1.47 13.22 2.93 27.9 5.87 51.77l-11.38 2.2z"/>
	</g>
	<g>
		<path class="s0" d="m1658.21 261.7h-17.66l-9.64-22.95h-44.95l-9.79 22.95h-17.11l41.83-95.75h15.49zm-49.85-75.79l-16.29 38.03h32.72z"/>
		<path class="s0" d="m1702.48 261.7h-16.84v-79.58h-30.15v-15.49h77.15v15.49h-30.16z"/>
		<path class="s0" d="m1820.64 181.71h-53.78v24.45h47.67v15.07h-47.67v25.39h54.46v15.08h-71.03v-95.07h70.35z"/>
		<path class="s0" d="m1841.29 166.63h16.57v79.99h49.97v15.08h-66.54z"/>
		<path class="s0" d="m1942.87 166.63v95.07h-16.57v-95.07z"/>
		<path class="s0" d="m2038.75 181.71h-53.78v24.45h47.67v15.07h-47.67v25.39h54.46v15.08h-71.03v-95.07h70.35zm-46.04-22.95h-12.77l15.76-19.83h15.21l15.75 19.83h-13.04l-10.46-9.1c0 0-10.46 9.1-10.45 9.1z"/>
	</g>
</svg>